<?xml version="1.0" standalone="no"?>
<!DOCTYPE svg PUBLIC "-//W3C//DTD SVG 20010904//EN"
 "http://www.w3.org/TR/2001/REC-SVG-20010904/DTD/svg10.dtd">
<svg version="1.0" xmlns="http://www.w3.org/2000/svg"
 width="984.000000pt" height="984.000000pt" viewBox="0 0 984.000000 984.000000"
 preserveAspectRatio="xMidYMid meet">
<metadata>
Created by potrace 1.14, written by Peter Selinger 2001-2017
</metadata>
<g transform="translate(0.000000,984.000000) scale(0.100000,-0.100000)"
fill="#000000" stroke="none">
<path d="M0 4915 l0 -3525 4920 0 4920 0 0 3525 0 3525 -4920 0 -4920 0 0
-3525z m2570 345 l0 -100 -100 0 -100 0 0 -350 0 -350 -100 0 -100 0 0 350 0
350 -105 0 -105 0 0 100 0 100 305 0 305 0 0 -100z m282 -72 l3 -173 115 0
115 0 3 173 2 172 100 0 100 0 0 -450 0 -450 -100 0 -100 0 0 175 0 175 -120
0 -120 0 -2 -172 -3 -173 -102 -3 -103 -3 0 451 0 450 105 0 105 0 2 -172z
m1078 160 c2 -33 2 -164 1 -175 -1 -10 -42 -13 -171 -13 l-171 0 3 -72 3 -73
123 -3 122 -3 0 -99 0 -100 -125 0 -125 0 0 -70 0 -70 170 0 c106 0 170 -4
170 -10 1 -5 1 -48 1 -95 0 -47 0 -89 -1 -95 0 -6 -99 -10 -275 -10 l-275 0 0
450 0 450 275 0 c213 0 275 -3 275 -12z m988 -85 l-3 -98 -173 -3 -173 -2 3
-73 3 -72 122 0 123 0 0 -102 0 -103 -125 0 -125 0 -2 -172 -3 -173 -100 0
-100 0 -3 448 -2 447 280 0 281 0 -3 -97z m262 -248 l0 -344 118 -3 117 -3 0
-100 0 -100 -222 -3 -223 -2 0 450 0 450 105 0 105 0 0 -345z m746 324 c65
-25 134 -83 169 -143 38 -67 48 -136 43 -311 -4 -135 -8 -169 -27 -217 -28
-71 -91 -137 -169 -175 -121 -59 -290 -27 -383 74 -22 25 -49 64 -60 88 -28
63 -42 193 -36 325 6 126 24 191 71 253 33 43 117 101 166 115 63 18 164 14
226 -9z m732 6 c86 -26 208 -159 189 -207 -4 -11 -148 -98 -161 -98 -3 0 -15
18 -27 40 -70 125 -220 95 -250 -49 -17 -81 -7 -251 17 -292 31 -52 69 -74
126 -74 47 0 53 3 92 46 l42 47 82 -45 c45 -25 82 -50 82 -57 0 -19 -52 -87
-91 -120 -79 -67 -203 -92 -316 -62 -113 29 -178 88 -217 201 -24 67 -34 310
-16 397 25 130 87 214 194 264 61 29 173 33 254 9z m494 -82 l3 -96 65 96 65
96 129 1 c101 0 126 -3 119 -12 -19 -24 -219 -293 -271 -365 l-53 -71 159
-214 c87 -117 162 -219 166 -225 6 -10 -20 -13 -117 -13 l-125 0 -69 93 -68
92 -5 -90 -5 -90 -102 -3 -103 -3 0 451 0 450 105 0 104 0 3 -97z"/>
</g>
</svg>
